<svg width="100%" height="100%" id="svg" viewBox="0 0 1440 690" xmlns="http://www.w3.org/2000/svg" class="transition duration-300 ease-in-out delay-150"><path d="M 0,700 L 0,175 C 89.80861244019138,146.51196172248802 179.61722488038276,118.02392344497606 266,123 C 352.38277511961724,127.97607655502394 435.3397129186603,166.41626794258374 539,161 C 642.6602870813397,155.58373205741626 767.023923444976,106.31100478468898 883,118 C 998.976076555024,129.68899521531102 1106.5645933014355,202.3397129186603 1198,222 C 1289.4354066985645,241.6602870813397 1364.7177033492821,208.33014354066984 1440,175 L 1440,700 L 0,700 Z" stroke="none" stroke-width="0" fill="#de527c" fill-opacity="0.53" class="transition-all duration-300 ease-in-out delay-150 path-0" transform="rotate(-180 720 350)"></path><path d="M 0,700 L 0,408 C 72.68899521531102,366.4976076555024 145.37799043062205,324.9952153110048 248,323 C 350.62200956937795,321.0047846889952 483.17703349282294,358.5167464114832 590,372 C 696.8229665071771,385.4832535885168 777.9138755980862,374.9377990430622 864,363 C 950.0861244019138,351.0622009569378 1041.1674641148325,337.732057416268 1138,345 C 1234.8325358851675,352.267942583732 1337.4162679425838,380.13397129186603 1440,408 L 1440,700 L 0,700 Z" stroke="none" stroke-width="0" fill="#de527c" fill-opacity="1" class="transition-all duration-300 ease-in-out delay-150 path-1" transform="rotate(-180 720 350)"></path></svg>